<svg xmlns="http://www.w3.org/2000/svg">
  <defs>
    <symbol id="icon-globe-roller" viewBox="0 0 1200 1200">
        <svg xmlns:inkscape="http://www.inkscape.org/namespaces/inkscape" xmlns:sodipodi="http://sodipodi.sourceforge.net/DTD/sodipodi-0.dtd" xmlns="http://www.w3.org/2000/svg" xmlns:svg="http://www.w3.org/2000/svg" version="1.1" x="0px" y="0px" viewBox="0 0 100 125" style="enable-background:new 0 0 100 100;" xml:space="preserve"><g transform="matrix(0.84477993,0,0,0.84477993,151.37803,-428.79515)"><path style="color:#000000;" d="m -143.6687,574 c -13.69721,0 -24.95223,11.43488 -24.30469,25.50586 0.56873,12.37023 10.63232,22.4713 22.99805,23.11719 7.05923,0.36967 13.52725,-2.27497 18.18554,-6.76953 1.31149,-1.26495 1.98047,-3.02275 1.98047,-4.80079 v -1.3789 c 0,-2.66555 2.13914,-4.80469 4.80469,-4.80469 2.66555,0 4.80469,2.13914 4.80469,4.80469 v 1.36328 c 0,1.77294 0.66507,3.5252 1.9707,4.78906 4.36682,4.2297 10.32417,6.83203 16.878907,6.83203 13.439521,0 24.339844,-10.89781 24.339844,-24.30859 0,-13.4491 -10.900138,-24.34961 -24.330079,-24.34961 z m 0,2 h 47.328122 c 12.350035,0 22.330079,9.97874 22.330079,22.34961 0,12.32919 -9.979391,22.30859 -22.339844,22.30859 -6.026697,0 -11.479217,-2.38391 -15.488277,-6.26758 a 1.0001,1.0001 0 0 0 0,-0.002 c -0.88237,-0.85409 -1.36133,-2.07846 -1.36133,-3.35151 v -1.36328 c 0,-3.74644 -3.05825,-6.80469 -6.80469,-6.80469 -3.74644,0 -6.80469,3.05825 -6.80469,6.80469 v 1.3789 c 0,1.27597 -0.48263,2.50628 -1.36914,3.36133 -4.2757,4.12542 -10.1946,6.55322 -16.69336,6.21289 -11.33625,-0.59211 -20.58225,-9.87514 -21.10351,-21.21289 C -166.5718,586.45307 -156.25547,576 -143.6687,576 Z" fill="#000000" stroke-linecap="round" stroke-linejoin="round" stroke-miterlimit="10"/><path style="color:#000000;" d="m -132.69214,582.42773 a 1,1 0 0 0 -1,1 1,1 0 0 0 1,1 h 25.37891 a 1,1 0 0 0 1,-1 1,1 0 0 0 -1,-1 z" fill="#000000" stroke-linecap="round" stroke-linejoin="round" stroke-miterlimit="10"/><path style="color:#000000;" d="m -124.31909,588.72461 a 1,1 0 0 0 -1,1 1,1 0 0 0 1,1 h 8.63281 a 1,1 0 0 0 1,-1 1,1 0 0 0 -1,-1 z" fill="#000000" stroke-linecap="round" stroke-linejoin="round" stroke-miterlimit="10"/><path style="color:#000000;" d="m -143.65698,586.36719 c -2.31547,0 -4.21485,1.89937 -4.21485,4.21484 v 3.5332 h -3.5332 c -2.31547,0 -4.21289,1.89938 -4.21289,4.21485 0,2.31546 1.89742,4.21289 4.21289,4.21289 h 3.5332 v 3.5332 c 0,2.31547 1.89938,4.21485 4.21485,4.21485 2.31546,0 4.21289,-1.89938 4.21289,-4.21485 v -3.5332 h 3.5332 c 2.31547,0 4.21484,-1.89743 4.21484,-4.21289 0,-2.31547 -1.89937,-4.21485 -4.21484,-4.21485 h -3.5332 v -3.5332 c 0,-2.31547 -1.89743,-4.21484 -4.21289,-4.21484 z m 0,2 c 1.23453,0 2.21289,0.98031 2.21289,2.21484 v 4.5332 a 1.0001,1.0001 0 0 0 1,1 h 4.5332 c 1.23453,0 2.21484,0.98032 2.21484,2.21485 0,1.23453 -0.98031,2.21289 -2.21484,2.21289 h -4.5332 a 1.0001,1.0001 0 0 0 -1,1 v 4.5332 c 0,1.23453 -0.97836,2.21485 -2.21289,2.21485 -1.23453,0 -2.21485,-0.98032 -2.21485,-2.21485 v -4.5332 a 1.0001,1.0001 0 0 0 -1,-1 h -4.5332 c -1.23453,0 -2.21289,-0.97836 -2.21289,-2.21289 0,-1.23453 0.97836,-2.21485 2.21289,-2.21485 h 4.5332 a 1.0001,1.0001 0 0 0 1,-1 v -4.5332 c 0,-1.23453 0.98032,-2.21484 2.21485,-2.21484 z" fill="#000000" stroke-linecap="round" stroke-linejoin="round" stroke-miterlimit="10"/><path style="color:#000000;" d="m -96.332765,602.86328 c -2.318149,0 -4.216795,1.89865 -4.216795,4.2168 0,2.30702 1.892657,4.21679 4.216795,4.21679 2.313062,0 4.214844,-1.90373 4.214844,-4.21679 0,-2.32414 -1.907826,-4.2168 -4.214844,-4.2168 z m 0,2 c 1.222978,0 2.214844,0.97894 2.214844,2.2168 0,1.21693 -0.997909,2.21679 -2.214844,2.21679 -1.237858,0 -2.216797,-0.99381 -2.216797,-2.21679 0,-1.24385 0.97295,-2.2168 2.216797,-2.2168 z" fill="#000000" stroke-linecap="round" stroke-linejoin="round" stroke-miterlimit="10"/><path style="color:#000000;" d="m -96.332765,585.36523 c -2.318149,0 -4.216795,1.89865 -4.216795,4.2168 0,2.30702 1.892657,4.2168 4.216795,4.2168 2.313062,0 4.214844,-1.90374 4.214844,-4.2168 0,-2.32414 -1.907826,-4.2168 -4.214844,-4.2168 z m 0,2 c 1.222978,0 2.214844,0.97894 2.214844,2.2168 0,1.21694 -0.997909,2.2168 -2.214844,2.2168 -1.237858,0 -2.216797,-0.99382 -2.216797,-2.2168 0,-1.24385 0.97295,-2.2168 2.216797,-2.2168 z" fill="#000000" stroke-linecap="round" stroke-linejoin="round" stroke-miterlimit="10"/><path style="color:#000000;" d="m -105.08276,594.11523 c -2.30665,0 -4.2168,1.89266 -4.2168,4.2168 0,2.31237 1.90373,4.21484 4.2168,4.21484 2.32413,0 4.21679,-1.90851 4.21679,-4.21484 0,-2.31745 -1.89865,-4.2168 -4.21679,-4.2168 z m 0,2 c 1.24384,0 2.21679,0.97425 2.21679,2.2168 0,1.22167 -0.97894,2.21484 -2.21679,2.21484 -1.21694,0 -2.2168,-0.99922 -2.2168,-2.21484 0,-1.23786 0.99344,-2.2168 2.2168,-2.2168 z" fill="#000000" stroke-linecap="round" stroke-linejoin="round" stroke-miterlimit="10"/><path style="color:#000000;" d="m -87.584718,594.11523 c -2.306641,0 -4.216797,1.89266 -4.216797,4.2168 0,2.31237 1.903735,4.21484 4.216797,4.21484 2.324138,0 4.216797,-1.90851 4.216797,-4.21484 0,-2.31745 -1.898648,-4.2168 -4.216797,-4.2168 z m 0,2 c 1.243847,0 2.216797,0.97425 2.216797,2.2168 0,1.22167 -0.978939,2.21484 -2.216797,2.21484 -1.216935,0 -2.216797,-0.99922 -2.216797,-2.21484 0,-1.23786 0.993441,-2.2168 2.216797,-2.2168 z" fill="#000000" stroke-linecap="round" stroke-linejoin="round" stroke-miterlimit="10"/></g><g transform="matrix(0.93367239,0,0,0.93367239,-439.37318,584.96308)"><g transform="translate(478.239,-667.724)"><path d="M 45.894,98 C 30.933,98 18.761,85.828 18.761,70.867 18.761,55.9 30.933,43.724 45.894,43.724 60.861,43.724 73.037,55.9 73.037,70.867 73.037,85.828 60.861,98 45.894,98 Z m 0,-52.275 C 32.036,45.725 20.761,57.004 20.761,70.868 20.761,84.726 32.036,96 45.894,96 59.757,96 71.037,84.726 71.037,70.867 71.037,57.004 59.758,45.725 45.894,45.725 Z"/></g><g transform="translate(478.239,-667.724)"><path d="m 54.011,78.835 c -0.706,0 -1.423,-0.149 -2.088,-0.448 -1.183,-0.531 -2.007,-1.45 -2.322,-2.586 -0.637,-2.294 0.831,-4.221 2.127,-5.921 1.108,-1.454 2.154,-2.827 1.833,-4.182 -0.329,-1.366 -1.965,-2.264 -4.861,-2.666 -1.836,-0.254 -5.659,-0.781 -6.755,-3.786 -1.031,-2.838 1.267,-5.767 3.953,-7.081 0.808,-0.39 1.646,-0.698 2.456,-0.996 1.505,-0.553 2.927,-1.075 4.006,-2.038 0.841,-0.74 1.463,-1.774 1.803,-2.995 0.075,-0.271 0.261,-0.496 0.511,-0.623 0.25,-0.128 0.544,-0.143 0.805,-0.044 8.334,3.141 14.593,10.171 16.741,18.803 0.079,0.319 -0.004,0.658 -0.223,0.904 -2.007,2.267 -4.438,3.281 -6.677,2.764 -0.743,-0.174 -1.415,-0.497 -2.065,-0.811 -0.957,-0.463 -1.779,-0.86 -2.494,-0.626 -0.787,0.254 -1.225,1.255 -1.312,2.134 -0.068,0.646 -0.02,1.315 0.032,2.024 0.04,0.552 0.081,1.123 0.068,1.707 -0.074,2.656 -1.438,5.009 -3.473,6.001 -0.632,0.311 -1.343,0.466 -2.065,0.466 z m 1.716,-31.112 c -0.475,1.146 -1.169,2.138 -2.04,2.904 -1.359,1.213 -3.028,1.826 -4.643,2.42 -0.801,0.294 -1.558,0.572 -2.272,0.917 -1.925,0.942 -3.557,2.921 -2.948,4.598 0.603,1.65 2.941,2.185 5.15,2.49 3.793,0.525 5.99,1.933 6.532,4.181 0.541,2.279 -0.908,4.181 -2.188,5.859 -1.111,1.459 -2.162,2.837 -1.79,4.174 0.207,0.746 0.85,1.133 1.215,1.297 0.797,0.358 1.737,0.36 2.457,0.009 1.375,-0.67 2.297,-2.339 2.35,-4.254 0.011,-0.483 -0.025,-0.982 -0.063,-1.512 -0.056,-0.765 -0.112,-1.556 -0.026,-2.371 0.183,-1.859 1.235,-3.366 2.681,-3.833 1.471,-0.483 2.807,0.158 3.983,0.726 0.578,0.278 1.123,0.542 1.646,0.664 1.836,0.421 3.493,-0.879 4.372,-1.761 -2.018,-7.424 -7.34,-13.505 -14.416,-16.508 z"/></g><g transform="translate(478.239,-667.724)"><path d="m 32.912,82.612 c -1.23,0 -2.464,-0.454 -3.353,-1.321 -1.294,-1.266 -1.856,-3.213 -1.671,-5.787 0.036,-0.503 0.093,-1.006 0.15,-1.509 0.144,-1.257 0.279,-2.444 0.073,-3.574 -0.102,-0.551 -0.287,-1.105 -0.483,-1.693 -0.324,-0.966 -0.659,-1.965 -0.656,-3.079 0.005,-2.091 1.354,-4.119 3.28,-4.932 2.43,-1.03 6.649,0.482 8.354,2.991 1.129,1.66 0.947,3.458 -0.5,4.933 v 0 c -0.504,0.514 -1.121,0.866 -1.665,1.177 -0.651,0.373 -1.215,0.694 -1.444,1.17 -0.379,0.784 0.23,1.874 0.51,2.307 0.171,0.265 0.357,0.521 0.543,0.778 0.53,0.734 1.078,1.493 1.367,2.448 0.607,2.009 -0.287,4.344 -2.08,5.432 -0.731,0.444 -1.577,0.659 -2.425,0.659 z M 32.054,62.379 c -0.384,0 -0.732,0.057 -1.024,0.18 -1.189,0.503 -2.055,1.804 -2.058,3.095 -0.002,0.785 0.268,1.589 0.553,2.439 0.21,0.628 0.428,1.276 0.554,1.969 0.26,1.421 0.101,2.813 -0.053,4.16 -0.055,0.476 -0.109,0.951 -0.144,1.426 -0.141,1.961 0.221,3.378 1.074,4.213 0.854,0.834 2.321,1.002 3.344,0.383 1.021,-0.619 1.549,-2 1.203,-3.144 -0.192,-0.635 -0.621,-1.228 -1.074,-1.855 -0.206,-0.286 -0.412,-0.571 -0.602,-0.864 -0.992,-1.536 -1.217,-3.05 -0.631,-4.263 0.499,-1.034 1.431,-1.566 2.253,-2.036 0.473,-0.271 0.92,-0.525 1.229,-0.841 v 0 c 0.771,-0.785 0.857,-1.551 0.274,-2.408 -0.937,-1.382 -3.234,-2.454 -4.898,-2.454 z m 5.339,5.561 h 0.01 z"/></g><g transform="translate(478.239,-667.724)"><path d="m 46.045,92.042 c -0.363,0 -0.73,-0.032 -1.098,-0.099 v 0 c -3.255,-0.589 -7.459,-3.764 -6.911,-7.597 0.289,-2.019 1.876,-3.76 3.859,-4.233 1.433,-0.345 3.254,0.124 3.817,1.664 0.117,0.321 0.154,0.636 0.185,0.889 0.021,0.17 0.039,0.33 0.076,0.433 0.101,0.28 0.509,0.543 1.119,0.719 0.165,0.048 0.334,0.091 0.503,0.133 0.625,0.157 1.334,0.336 1.967,0.782 0.768,0.543 1.266,1.399 1.401,2.412 0.151,1.123 -0.173,2.297 -0.865,3.139 -0.921,1.117 -2.437,1.758 -4.053,1.758 z m -0.743,-2.067 c 1.301,0.237 2.577,-0.143 3.251,-0.962 0.341,-0.415 0.505,-1.028 0.428,-1.603 -0.035,-0.264 -0.157,-0.75 -0.573,-1.044 -0.328,-0.231 -0.801,-0.351 -1.301,-0.477 -0.191,-0.048 -0.383,-0.097 -0.571,-0.15 -1.604,-0.465 -2.215,-1.324 -2.444,-1.964 -0.114,-0.317 -0.149,-0.613 -0.181,-0.874 -0.02,-0.172 -0.039,-0.334 -0.076,-0.437 -0.146,-0.399 -0.896,-0.546 -1.475,-0.406 -1.186,0.283 -2.172,1.364 -2.344,2.571 -0.368,2.573 2.939,4.922 5.286,5.346 z"/></g></g><text x="0" y="115" fill="#000000" font-size="5px" font-weight="bold" font-family="'Helvetica Neue', Helvetica, Arial-Unicode, Arial, Sans-serif">Created by Soapi</text><text x="0" y="120" fill="#000000" font-size="5px" font-weight="bold" font-family="'Helvetica Neue', Helvetica, Arial-Unicode, Arial, Sans-serif">from the Noun Project</text></svg>
    </symbol>
    <!-- Icons go here -->
  </defs>
</svg>