<svg xmlns="http://www.w3.org/2000/svg" xmlns:xlink="http://www.w3.org/1999/xlink" version="1.1" x="0px" y="0px" viewBox="0 0 90 112.5" style="enable-background:new 0 0 90 90;" xml:space="preserve"><path d="M48.3310547,8.5688477c-14.8291016,0-26.8935547,12.0644531-26.8935547,26.8935547v3.5361328l-6.5400391,11.9135742  c-0.1503906,0.2734375-0.1640625,0.6015625-0.0371094,0.887207c0.1269531,0.2851563,0.3798828,0.4951172,0.6835938,0.5668945  l10.3330078,2.4433594v14.4335938c0,0.5522461,0.4472656,1,1,1h11.6875v10.1879883c0,0.5522461,0.4472656,1,1,1h28.4892578  c0.5527344,0,1-0.4477539,1-1V69.340332l5.40625-27.4970703c0.0019531-0.0102539,0.0039063-0.0209961,0.0058594-0.0317383  c0.5039063-2.0830078,0.7597656-4.21875,0.7597656-6.3491211C75.2255859,20.6333008,63.1611328,8.5688477,48.3310547,8.5688477z   M27.8769531,68.2431641v-7.7503052c0.7145996,0.1870728,1.6514282,0.3552856,2.7626953,0.3552856  c1.2392578,0,2.6806641-0.2080078,4.2216797-0.8266602c0.5126953-0.2060547,0.7617188-0.7880859,0.5556641-1.3007813  c-0.2050781-0.5126953-0.7871094-0.7612305-1.2998047-0.5556641c-2.8237915,1.133728-5.2022705,0.6001587-6.2402344,0.2503662  v-3.3122559c2.9321899,0.1827393,11.0419922,0.3044434,17.5976563-3.2296143  c1.0546875-0.5693359,1.9228516-0.5385742,2.6503906,0.0957031c1.6201172,1.4145508,2.3779297,5.7856445,0.8740234,9.7973633  c-0.9072266,2.4189453-3.3388672,6.4765625-9.4345703,6.4765625H27.8769531z M72.5039063,41.4116211  c-0.0097656,0.0400391-0.0166016,0.0800781-0.0214844,0.1206055L67.0722656,69.050293  c-0.0126953,0.0634766-0.0185547,0.1279297-0.0185547,0.1928711v10.1879883H40.5644531v-9.2225342  c4.8466187-0.3340454,8.5716553-3.1124268,10.3066406-7.7398682c1.7041016-4.5449219,1.0751953-9.8188477-1.4316406-12.0063477  c-1.3701172-1.1958008-3.1162109-1.3178711-4.9140625-0.3496094c-7.1481323,3.8557739-16.697998,2.9971313-17.4805298,2.9178467  l-9.7616577-2.3084717l6.03125-10.9858398c0.0810547-0.1479492,0.1230469-0.3129883,0.1230469-0.4814453v-3.7924805  c0-13.7265625,11.1669922-24.8935547,24.8935547-24.8935547s24.8945313,11.1669922,24.8945313,24.8935547  C73.2255859,37.4584961,72.9833984,39.4599609,72.5039063,41.4116211z"/><path d="M32.5732422,35.4868164c-1.9511719,0-3.5380859,1.5869141-3.5380859,3.5375977  c0,1.9501953,1.5869141,3.5371094,3.5380859,3.5371094c1.9501953,0,3.5371094-1.5869141,3.5371094-3.5371094  C36.1103516,37.0737305,34.5234375,35.4868164,32.5732422,35.4868164z M32.5732422,40.5615234  c-0.8476563,0-1.5380859-0.6894531-1.5380859-1.5371094s0.6904297-1.5375977,1.5380859-1.5375977  s1.5371094,0.6899414,1.5371094,1.5375977S33.4208984,40.5615234,32.5732422,40.5615234z"/><path d="M58.9697266,35.4868164c-2.2675781,0-4.3544922,1.1376953-5.7246094,3.1220703  C52.9306641,39.0629883,53.0449219,39.6860352,53.4990234,40c0.4541016,0.3120117,1.0771484,0.1992188,1.390625-0.2543945  c0.9921875-1.4355469,2.4794922-2.2587891,4.0800781-2.2587891c2.8515625,0,5.1708984,2.6123047,5.1708984,5.8227539  c0,3.2109375-2.3193359,5.8232422-5.1708984,5.8232422c-1.6005859,0-3.0878906-0.8232422-4.0800781-2.2587891  c-0.3134766-0.4550781-0.9365234-0.5678711-1.390625-0.2543945c-0.4541016,0.3139648-0.5683594,0.9370117-0.2539063,1.3911133  c1.3701172,1.984375,3.4570313,3.1220703,5.7246094,3.1220703c3.9541016,0,7.1708984-3.5092773,7.1708984-7.8232422  C66.140625,38.9960938,62.9238281,35.4868164,58.9697266,35.4868164z"/><path d="M58.3671875,44.8608398c-0.3896484,0-0.7578125-0.2094727-1.0107422-0.5742188  c-0.3134766-0.4550781-0.9394531-0.5678711-1.390625-0.2543945c-0.4541016,0.3139648-0.5683594,0.9370117-0.2539063,1.3911133  c0.6220703,0.9003906,1.6142578,1.4375,2.6552734,1.4375c1.8232422,0,3.3066406-1.5932617,3.3066406-3.5512695  s-1.4833984-3.5507813-3.3066406-3.5507813c-1.0410156,0-2.0332031,0.5371094-2.6552734,1.4375  c-0.3144531,0.4541016-0.2001953,1.0771484,0.2539063,1.3911133c0.4511719,0.3120117,1.0771484,0.2006836,1.390625-0.2543945  c0.2529297-0.3647461,0.6210938-0.5742188,1.0107422-0.5742188c0.7207031,0,1.3066406,0.6958008,1.3066406,1.5507813  C59.6738281,44.1650391,59.0878906,44.8608398,58.3671875,44.8608398z"/><path d="M32.5732422,32.1391602c-3.6162109,0-6.6816406,2.7050781-7.1298828,6.2919922  c-0.0683594,0.5478516,0.3203125,1.0478516,0.8681641,1.1162109c0.5488281,0.0703125,1.046875-0.3208008,1.1162109-0.8681641  c0.3242188-2.5883789,2.5361328-4.5400391,5.1455078-4.5400391c2.6083984,0,4.8212891,1.9521484,5.1455078,4.5405273  c0.0634766,0.5058594,0.4941406,0.8754883,0.9912109,0.8754883c0.0410156,0,0.0830078-0.0024414,0.125-0.0078125  c0.5488281-0.0688477,0.9365234-0.5688477,0.8681641-1.1166992C39.2529297,34.84375,36.1884766,32.1391602,32.5732422,32.1391602z"/><text x="0" y="105" fill="#000000" font-size="5px" font-weight="bold" font-family="'Helvetica Neue', Helvetica, Arial-Unicode, Arial, Sans-serif">Created by iconcheese</text><text x="0" y="110" fill="#000000" font-size="5px" font-weight="bold" font-family="'Helvetica Neue', Helvetica, Arial-Unicode, Arial, Sans-serif">from the Noun Project</text></svg>